<svg width="40" height="40" viewBox="0 0 40 40" fill="none" xmlns="http://www.w3.org/2000/svg">
<path opacity="0.4" d="M33.1967 26.3983C33.0133 24.365 32.4633 22.1816 28.4967 22.1816H12.7133C8.74668 22.1816 8.21335 24.365 8.01335 26.3983L7.31335 33.9316C7.23002 34.865 7.54668 35.815 8.18001 36.515C8.83001 37.2316 9.76335 37.6483 10.7467 37.6483H13.0633C15.0633 37.6483 15.4467 36.4983 15.6967 35.7483L15.9467 35.015C16.23 34.165 16.2967 33.9483 17.4133 33.9483H23.7467C24.8467 33.9483 24.8967 34.065 25.2133 35.015L25.4633 35.765C25.7133 36.515 26.0967 37.665 28.0967 37.665H30.4133C31.3967 37.665 32.33 37.2483 32.98 36.5316C33.6133 35.8316 33.93 34.8816 33.8467 33.9483L33.1967 26.3983Z" fill="#EAECEF"/>
<path d="M31.7467 18.4834H30.48L30.0133 16.2334C29.5633 14.0667 28.6467 12.0834 24.9633 12.0834H16.28C12.5967 12.0834 11.6633 14.0667 11.23 16.2334L10.7633 18.4834H9.49666C9.24912 18.4834 9.01173 18.5817 8.83669 18.7567C8.66166 18.9318 8.56332 19.1692 8.56332 19.4167C8.56332 19.6642 8.66166 19.9016 8.83669 20.0767C9.01173 20.2517 9.24912 20.35 9.49666 20.35H10.38L9.86332 22.8167C10.53 22.4334 11.4633 22.2 12.7467 22.2H28.53C29.8133 22.2 30.7467 22.4334 31.4133 22.8167L30.8967 20.35H31.78C32.2967 20.35 32.7133 19.9334 32.7133 19.4167C32.7007 19.1675 32.5938 18.9325 32.4143 18.7592C32.2348 18.5859 31.9961 18.4873 31.7467 18.4834ZM16.9117 28.9834H13.195C13.0724 28.9834 12.9511 28.9592 12.8378 28.9123C12.7246 28.8654 12.6217 28.7967 12.535 28.71C12.4484 28.6233 12.3796 28.5204 12.3327 28.4072C12.2858 28.294 12.2617 28.1726 12.2617 28.05C12.2617 27.9275 12.2858 27.8061 12.3327 27.6929C12.3796 27.5796 12.4484 27.4767 12.535 27.3901C12.6217 27.3034 12.7246 27.2347 12.8378 27.1878C12.9511 27.1409 13.0724 27.1167 13.195 27.1167H16.9117C17.4283 27.1167 17.845 27.5334 17.845 28.05C17.8283 28.5667 17.4283 28.9834 16.9117 28.9834ZM28.045 28.9834H24.3283C24.2058 28.9834 24.0844 28.9592 23.9712 28.9123C23.8579 28.8654 23.755 28.7967 23.6684 28.71C23.5817 28.6233 23.5129 28.5204 23.466 28.4072C23.4191 28.294 23.395 28.1726 23.395 28.05C23.395 27.9275 23.4191 27.8061 23.466 27.6929C23.5129 27.5796 23.5817 27.4767 23.6684 27.3901C23.755 27.3034 23.8579 27.2347 23.9712 27.1878C24.0844 27.1409 24.2058 27.1167 24.3283 27.1167H28.045C28.5617 27.1167 28.9783 27.5334 28.9783 28.05C28.9617 28.5667 28.545 28.9834 28.045 28.9834Z" fill="#EAECEF"/>
</svg>
