<svg width="40" height="40" viewBox="0 0 40 40" fill="none" xmlns="http://www.w3.org/2000/svg">
<path d="M36.6667 37.9167H3.33334C2.65001 37.9167 2.08334 37.35 2.08334 36.6667C2.08334 35.9833 2.65001 35.4167 3.33334 35.4167H36.6667C37.35 35.4167 37.9167 35.9833 37.9167 36.6667C37.9167 37.35 37.35 37.9167 36.6667 37.9167Z" fill="#EAECEF"/>
<path opacity="0.4" d="M35 16.6317V36.665H4.91666L4.99999 16.615C4.99999 15.5983 5.46666 14.6317 6.28332 13.9983L17.95 4.93168C19.15 3.98168 20.85 3.98168 22.05 4.93168L24.2833 6.66501L31.6667 12.3983L33.7167 13.9983C34.5333 14.6317 35 15.5983 35 16.6317Z" fill="#EAECEF"/>
<path d="M21.6667 28.3333H18.3333C16.95 28.3333 15.8333 29.45 15.8333 30.8333V36.6667H24.1667V30.8333C24.1667 29.45 23.05 28.3333 21.6667 28.3333ZM15.8333 22.9167H12.5C11.5833 22.9167 10.8333 22.1667 10.8333 21.25V18.75C10.8333 17.8333 11.5833 17.0833 12.5 17.0833H15.8333C16.75 17.0833 17.5 17.8333 17.5 18.75V21.25C17.5 22.1667 16.75 22.9167 15.8333 22.9167ZM27.5 22.9167H24.1667C23.25 22.9167 22.5 22.1667 22.5 21.25V18.75C22.5 17.8333 23.25 17.0833 24.1667 17.0833H27.5C28.4167 17.0833 29.1667 17.8333 29.1667 18.75V21.25C29.1667 22.1667 28.4167 22.9167 27.5 22.9167ZM31.6667 12.4L24.2833 6.66666H29.9667C30.8833 6.66666 31.6333 7.39999 31.6333 8.31666L31.6667 12.4Z" fill="#EAECEF"/>
</svg>
