<svg width="40" height="40" viewBox="0 0 40 40" fill="none" xmlns="http://www.w3.org/2000/svg">
<path d="M35.1517 11.6333C33.735 10.0667 31.3683 9.28335 27.935 9.28335H27.535V9.21668C27.535 6.41668 27.535 2.95001 21.2683 2.95001H18.735C12.4683 2.95001 12.4683 6.43335 12.4683 9.21668V9.30001H12.0683C8.61833 9.30001 6.26833 10.0833 4.85167 11.65C3.20167 13.4833 3.25167 15.95 3.41833 17.6333L3.435 17.75L3.60167 19.5C3.61833 19.5167 3.65167 19.55 3.685 19.5667C4.235 19.9333 4.80167 20.3 5.40167 20.6333C5.635 20.7833 5.885 20.9167 6.135 21.05C8.985 22.6167 12.1183 23.6667 15.3017 24.1833C15.4517 25.75 16.135 27.5833 19.785 27.5833C23.435 27.5833 24.1517 25.7667 24.2683 24.15C27.6683 23.6 30.9517 22.4167 33.9183 20.6833C34.0183 20.6333 34.085 20.5833 34.1683 20.5333C34.935 20.1 35.6517 19.6333 36.3517 19.1167C36.3872 19.0979 36.4162 19.0689 36.435 19.0333L36.5017 18.4333L36.585 17.65C36.6017 17.55 36.6017 17.4667 36.6183 17.35C36.7517 15.6667 36.7183 13.3667 35.1517 11.6333ZM21.8183 23.05C21.8183 24.8167 21.8183 25.0833 19.7683 25.0833C17.7183 25.0833 17.7183 24.7667 17.7183 23.0667V20.9667H21.8183V23.05ZM14.8517 9.28335V9.21668C14.8517 6.38335 14.8517 5.33335 18.735 5.33335H21.2683C25.1517 5.33335 25.1517 6.40001 25.1517 9.21668V9.30001H14.8517V9.28335Z" fill="#EAECEF"/>
<path opacity="0.4" d="M34.1667 20.4967L33.9167 20.6467C30.937 22.3783 27.6671 23.553 24.2667 24.1133C24.1333 25.7133 23.4333 27.5467 19.7833 27.5467C16.1333 27.5467 15.4333 25.73 15.3 24.1467C12.1167 23.6467 8.98333 22.5967 6.13333 21.0133C5.88333 20.88 5.63333 20.7467 5.4 20.5967C4.8 20.2633 4.23333 19.8967 3.68333 19.53C3.65 19.5133 3.61667 19.48 3.6 19.4633L4.61666 30.3133C4.96666 33.63 6.33333 37.0467 13.6667 37.0467H26.3667C33.7 37.0467 35.0667 33.63 35.4167 30.2967L36.4667 18.9967C36.4479 19.0322 36.4188 19.0612 36.3833 19.08C35.6667 19.5967 34.9333 20.08 34.1667 20.4967Z" fill="#EAECEF"/>
</svg>
