<svg width="40" height="40" viewBox="0 0 40 40" fill="none" xmlns="http://www.w3.org/2000/svg">
<path opacity="0.4" d="M35.6167 18.9833V28.9667C35.6167 33.5667 31.8833 37.3 27.2833 37.3H12.7167C8.11666 37.3 4.38333 33.5667 4.38333 28.9667V19.1C5.65 20.4667 7.45 21.25 9.4 21.25C11.5 21.25 13.5167 20.2 14.7833 18.5167C15.3617 19.3655 16.1402 20.0588 17.0499 20.5355C17.9597 21.0122 18.9729 21.2576 20 21.25C22.1333 21.25 24.0333 20.25 25.1833 18.5833C26.4667 20.2333 28.45 21.25 30.5167 21.25C32.5333 21.25 34.3667 20.4333 35.6167 18.9833Z" fill="#EAECEF"/>
<path d="M24.9833 2.08334H14.9833L13.75 14.35C13.65 15.4833 13.8167 16.55 14.2333 17.5167C15.2 19.7833 17.4667 21.25 20 21.25C22.5667 21.25 24.7833 19.8167 25.7833 17.5333C26.0833 16.8167 26.2667 15.9833 26.2833 15.1333V14.8167L24.9833 2.08334Z" fill="#EAECEF"/>
<path opacity="0.6" d="M37.2667 13.7833L36.7833 9.16668C36.0833 4.13334 33.8 2.08334 28.9167 2.08334H22.5167L23.75 14.5833C23.7667 14.75 23.7833 14.9333 23.7833 15.25C23.8833 16.1167 24.15 16.9167 24.55 17.6333C25.75 19.8333 28.0833 21.25 30.5167 21.25C32.7333 21.25 34.7333 20.2667 35.9833 18.5333C36.9833 17.2 37.4333 15.5167 37.2667 13.7833ZM10.9833 2.08334C6.08333 2.08334 3.81666 4.13334 3.1 9.21668L2.65 13.8C2.48333 15.5833 2.96666 17.3167 4.01666 18.6667C5.28333 20.3167 7.23333 21.25 9.4 21.25C11.8333 21.25 14.1667 19.8333 15.35 17.6667C15.7833 16.9167 16.0667 16.05 16.15 15.15L17.45 2.10001H10.9833V2.08334Z" fill="#EAECEF"/>
<path d="M18.9167 27.7667C17.8935 27.8759 16.9471 28.3607 16.2606 29.1273C15.5741 29.8938 15.1962 30.8877 15.2 31.9167V37.3H24.7833V32.5C24.8 29.0167 22.75 27.3667 18.9167 27.7667Z" fill="#EAECEF"/>
</svg>
