<svg width="40" height="40" viewBox="0 0 40 40" fill="none" xmlns="http://www.w3.org/2000/svg">
<path opacity="0.4" d="M35.5 18.0667C36.15 18.0667 36.6666 17.55 36.6666 16.9V15.35C36.6666 8.51668 34.5833 6.43335 27.75 6.43335H12.25C5.41665 6.43335 3.33331 8.51668 3.33331 15.35V16.1334C3.33331 16.7834 3.84998 17.3 4.49998 17.3C5.99998 17.3 7.21665 18.5167 7.21665 20.0167C7.21665 21.5167 5.99998 22.7167 4.49998 22.7167C3.84998 22.7167 3.33331 23.2334 3.33331 23.8834V24.6667C3.33331 31.5 5.41665 33.5833 12.25 33.5833H27.75C34.5833 33.5833 36.6666 31.5 36.6666 24.6667C36.6666 24.0167 36.15 23.5 35.5 23.5C34.7795 23.5 34.0885 23.2138 33.579 22.7043C33.0695 22.1949 32.7833 21.5039 32.7833 20.7834C32.7833 20.0628 33.0695 19.3719 33.579 18.8624C34.0885 18.3529 34.7795 18.0667 35.5 18.0667Z" fill="#181A1B"/>
<path d="M24.9966 26.4649C24.0633 26.4649 23.3133 25.7149 23.3133 24.7983C23.3133 23.8816 24.0633 23.1316 24.98 23.1316C25.8966 23.1316 26.6466 23.8816 26.6466 24.7983C26.6466 25.7149 25.93 26.4649 24.9966 26.4649ZM14.9966 18.1316C14.0633 18.1316 13.3133 17.3816 13.3133 16.4649C13.3133 15.5483 14.0633 14.7983 14.98 14.7983C15.8966 14.7983 16.6466 15.5483 16.6466 16.4649C16.6466 17.3816 15.93 18.1316 14.9966 18.1316ZM14.3833 27.3833C14.0666 27.3833 13.75 27.2666 13.5 27.0166C13.2675 26.7814 13.1371 26.464 13.1371 26.1333C13.1371 25.8026 13.2675 25.4852 13.5 25.2499L24.7166 14.0333C25.2 13.5499 26 13.5499 26.4833 14.0333C26.9666 14.5166 26.9666 15.3166 26.4833 15.7999L15.2666 27.0166C15.0333 27.2666 14.7 27.3833 14.3833 27.3833Z" fill="#181A1B"/>
</svg>
