<svg width="40" height="40" viewBox="0 0 40 40" fill="none" xmlns="http://www.w3.org/2000/svg">
<path opacity="0.4" d="M31.6667 15C31.6667 17.4167 30.95 19.6334 29.7167 21.4834C28.8129 22.8313 27.6373 23.9754 26.2654 24.8422C24.8934 25.709 23.3554 26.2793 21.75 26.5167C21.1833 26.6167 20.6 26.6667 20 26.6667C19.4 26.6667 18.8167 26.6167 18.25 26.5167C16.6446 26.2793 15.1066 25.709 13.7346 24.8422C12.3627 23.9754 11.1871 22.8313 10.2833 21.4834C9.00384 19.5639 8.32499 17.3069 8.33333 15C8.33333 8.55004 13.55 3.33337 20 3.33337C26.45 3.33337 31.6667 8.55004 31.6667 15Z" fill="#181A1B"/>
<path d="M35.4167 30.78L32.6667 31.43C32.05 31.58 31.5667 32.0466 31.4333 32.6633L30.85 35.1133C30.7785 35.414 30.6247 35.689 30.4058 35.9073C30.187 36.1257 29.9117 36.2789 29.6108 36.3498C29.3099 36.4207 28.9953 36.4065 28.702 36.3088C28.4087 36.2111 28.1483 36.0338 27.95 35.7966L20 26.6633L12.05 35.8133C11.8517 36.0505 11.5913 36.2278 11.298 36.3255C11.0047 36.4231 10.6901 36.4373 10.3892 36.3664C10.0883 36.2955 9.81301 36.1423 9.59418 35.924C9.37534 35.7056 9.22156 35.4307 9.15 35.13L8.56667 32.68C8.49577 32.3802 8.34285 32.1061 8.12504 31.8883C7.90722 31.6704 7.6331 31.5175 7.33334 31.4466L4.58334 30.7966C4.29521 30.7276 4.03062 30.5832 3.81666 30.3782C3.60269 30.1733 3.44705 29.9151 3.36565 29.6303C3.28425 29.3454 3.28004 29.044 3.35343 28.7569C3.42682 28.4699 3.57519 28.2075 3.78334 27.9966L10.2833 21.4966C11.1872 22.8445 12.3628 23.9885 13.7347 24.8553C15.1066 25.7221 16.6446 26.2925 18.25 26.53C18.8167 26.63 19.4 26.68 20 26.68C20.6 26.68 21.1833 26.63 21.75 26.53C25.0667 26.0466 27.9167 24.1633 29.7167 21.4966L36.2167 27.9966C37.1333 28.8966 36.6833 30.48 35.4167 30.78ZM20.9667 9.96663L21.95 11.9333C22.0833 12.2 22.4333 12.4666 22.75 12.5166L24.5333 12.8166C25.6667 13 25.9333 13.8333 25.1167 14.65L23.7333 16.0333C23.5 16.2666 23.3667 16.7166 23.45 17.05L23.85 18.7666C24.1667 20.1166 23.45 20.65 22.25 19.9333L20.5833 18.95C20.4141 18.8596 20.2252 18.8124 20.0333 18.8124C19.8415 18.8124 19.6526 18.8596 19.4833 18.95L17.8167 19.9333C16.6167 20.6333 15.9 20.1166 16.2167 18.7666L16.6167 17.05C16.6833 16.7333 16.5667 16.2666 16.3333 16.0333L14.95 14.65C14.1333 13.8333 14.4 13.0166 15.5333 12.8166L17.3167 12.5166C17.6167 12.4666 17.9667 12.2 18.1 11.9333L19.0833 9.96663C19.5667 8.89996 20.4333 8.89996 20.9667 9.96663Z" fill="#181A1B"/>
</svg>
