<svg width="40" height="40" viewBox="0 0 40 40" fill="none" xmlns="http://www.w3.org/2000/svg">
<path d="M36.6666 37.9166H3.33331C2.64998 37.9166 2.08331 37.35 2.08331 36.6666C2.08331 35.9833 2.64998 35.4166 3.33331 35.4166H36.6666C37.35 35.4166 37.9166 35.9833 37.9166 36.6666C37.9166 37.35 37.35 37.9166 36.6666 37.9166Z" fill="#181A1B"/>
<path opacity="0.4" d="M35 16.6316V36.665H4.91669L5.00002 16.6149C5.00002 15.5983 5.46669 14.6316 6.28335 13.9983L17.95 4.93162C19.15 3.98162 20.85 3.98162 22.05 4.93162L24.2834 6.66495L31.6667 12.3983L33.7167 13.9983C34.5334 14.6316 35 15.5983 35 16.6316Z" fill="#181A1B"/>
<path d="M21.6666 28.3333H18.3333C16.95 28.3333 15.8333 29.45 15.8333 30.8333V36.6666H24.1666V30.8333C24.1666 29.45 23.05 28.3333 21.6666 28.3333ZM15.8333 22.9166H12.5C11.5833 22.9166 10.8333 22.1666 10.8333 21.25V18.75C10.8333 17.8333 11.5833 17.0833 12.5 17.0833H15.8333C16.75 17.0833 17.5 17.8333 17.5 18.75V21.25C17.5 22.1666 16.75 22.9166 15.8333 22.9166ZM27.5 22.9166H24.1666C23.25 22.9166 22.5 22.1666 22.5 21.25V18.75C22.5 17.8333 23.25 17.0833 24.1666 17.0833H27.5C28.4166 17.0833 29.1666 17.8333 29.1666 18.75V21.25C29.1666 22.1666 28.4166 22.9166 27.5 22.9166ZM31.6666 12.4L24.2833 6.66663H29.9666C30.8833 6.66663 31.6333 7.39996 31.6333 8.31663L31.6666 12.4Z" fill="#181A1B"/>
</svg>
