<svg width="40" height="40" viewBox="0 0 40 40" fill="none" xmlns="http://www.w3.org/2000/svg">
<path d="M35.1517 11.6333C33.735 10.0666 31.3684 9.28328 27.935 9.28328H27.535V9.21662C27.535 6.41662 27.535 2.94995 21.2684 2.94995H18.735C12.4684 2.94995 12.4684 6.43328 12.4684 9.21662V9.29995H12.0684C8.61836 9.29995 6.26836 10.0833 4.85169 11.65C3.20169 13.4833 3.25169 15.95 3.41836 17.6333L3.43502 17.7499L3.60169 19.5C3.61836 19.5166 3.65169 19.5499 3.68502 19.5666C4.23502 19.9333 4.80169 20.3 5.40169 20.6333C5.63502 20.7833 5.88502 20.9166 6.13502 21.05C8.98502 22.6166 12.1184 23.6666 15.3017 24.1833C15.4517 25.75 16.135 27.5833 19.785 27.5833C23.435 27.5833 24.1517 25.7666 24.2684 24.15C27.6684 23.5999 30.9517 22.4166 33.9184 20.6833C34.0184 20.6333 34.085 20.5833 34.1684 20.5333C34.935 20.0999 35.6517 19.6333 36.3517 19.1166C36.3872 19.0978 36.4162 19.0688 36.435 19.0333L36.5017 18.4333L36.585 17.65C36.6017 17.55 36.6017 17.4666 36.6184 17.3499C36.7517 15.6666 36.7184 13.3666 35.1517 11.6333ZM21.8184 23.0499C21.8184 24.8166 21.8184 25.0833 19.7684 25.0833C17.7184 25.0833 17.7184 24.7666 17.7184 23.0666V20.9666H21.8184V23.0499ZM14.8517 9.28328V9.21662C14.8517 6.38328 14.8517 5.33328 18.735 5.33328H21.2684C25.1517 5.33328 25.1517 6.39995 25.1517 9.21662V9.29995H14.8517V9.28328Z" fill="#181A1B"/>
<path opacity="0.4" d="M34.1666 20.4967L33.9166 20.6467C30.937 22.3783 27.667 23.553 24.2666 24.1134C24.1333 25.7134 23.4333 27.5467 19.7833 27.5467C16.1333 27.5467 15.4333 25.73 15.3 24.1467C12.1166 23.6467 8.98331 22.5967 6.13331 21.0134C5.88331 20.88 5.63331 20.7467 5.39998 20.5967C4.79998 20.2634 4.23331 19.8967 3.68331 19.53C3.64998 19.5134 3.61664 19.48 3.59998 19.4634L4.61664 30.3134C4.96664 33.63 6.33331 37.0467 13.6666 37.0467H26.3666C33.7 37.0467 35.0666 33.63 35.4166 30.2967L36.4666 18.9967C36.4479 19.0322 36.4188 19.0613 36.3833 19.08C35.6666 19.5967 34.9333 20.08 34.1666 20.4967Z" fill="#181A1B"/>
</svg>
