<svg width="40" height="40" viewBox="0 0 40 40" fill="none" xmlns="http://www.w3.org/2000/svg">
<path opacity="0.4" d="M35.6167 18.9834V28.9667C35.6167 33.5667 31.8834 37.3001 27.2834 37.3001H12.7167C8.1167 37.3001 4.38336 33.5667 4.38336 28.9667V19.1001C5.65003 20.4667 7.45003 21.2501 9.40003 21.2501C11.5 21.2501 13.5167 20.2001 14.7834 18.5167C15.3617 19.3655 16.1402 20.0589 17.05 20.5356C17.9598 21.0123 18.9729 21.2577 20 21.2501C22.1334 21.2501 24.0334 20.2501 25.1834 18.5834C26.4667 20.2334 28.45 21.2501 30.5167 21.2501C32.5334 21.2501 34.3667 20.4334 35.6167 18.9834Z" fill="#181A1B"/>
<path d="M24.9833 2.08337H14.9833L13.75 14.35C13.65 15.4834 13.8166 16.55 14.2333 17.5167C15.2 19.7834 17.4666 21.25 20 21.25C22.5666 21.25 24.7833 19.8167 25.7833 17.5334C26.0833 16.8167 26.2666 15.9834 26.2833 15.1334V14.8167L24.9833 2.08337Z" fill="#181A1B"/>
<path opacity="0.6" d="M37.2667 13.7834L36.7834 9.16671C36.0834 4.13337 33.8 2.08337 28.9167 2.08337H22.5167L23.75 14.5834C23.7667 14.75 23.7834 14.9334 23.7834 15.25C23.8834 16.1167 24.15 16.9167 24.55 17.6334C25.75 19.8334 28.0834 21.25 30.5167 21.25C32.7334 21.25 34.7334 20.2667 35.9834 18.5334C36.9834 17.2 37.4334 15.5167 37.2667 13.7834ZM10.9834 2.08337C6.08336 2.08337 3.81669 4.13337 3.10003 9.21671L2.65003 13.8C2.48336 15.5834 2.96669 17.3167 4.01669 18.6667C5.28336 20.3167 7.23336 21.25 9.40003 21.25C11.8334 21.25 14.1667 19.8334 15.35 17.6667C15.7834 16.9167 16.0667 16.05 16.15 15.15L17.45 2.10004H10.9834V2.08337Z" fill="#181A1B"/>
<path d="M18.9166 27.7666C17.8935 27.8759 16.9471 28.3607 16.2606 29.1272C15.5741 29.8938 15.1962 30.8876 15.2 31.9166V37.3H24.7833V32.5C24.8 29.0166 22.75 27.3666 18.9166 27.7666Z" fill="#181A1B"/>
</svg>
