<svg width="24" height="24" viewBox="0 0 24 24" fill="none" xmlns="http://www.w3.org/2000/svg">
<path d="M11.9905 5.62592C10.7293 5.62568 9.49646 5.99944 8.44774 6.69991C7.39903 7.40039 6.58159 8.39613 6.09881 9.5612C5.61603 10.7263 5.48958 12.0083 5.73547 13.2453C5.98135 14.4822 6.58852 15.6184 7.48019 16.5103C8.37186 17.4021 9.50798 18.0095 10.7449 18.2557C11.9817 18.5018 13.2638 18.3756 14.429 17.8931C15.5942 17.4105 16.5901 16.5933 17.2908 15.5447C17.9915 14.4961 18.3655 13.2633 18.3655 12.0022C18.3637 10.3119 17.6916 8.69124 16.4964 7.49587C15.3013 6.3005 13.6808 5.628 11.9905 5.62592Z" fill="#EAECEF"/>
<path d="M22.1258 10.877H20.627C20.3286 10.877 20.0424 10.9956 19.8314 11.2066C19.6204 11.4176 19.5018 11.7038 19.5018 12.0022C19.5018 12.3006 19.6204 12.5868 19.8314 12.7978C20.0424 13.0088 20.3286 13.1274 20.627 13.1274H22.1258C22.4242 13.1274 22.7104 13.0088 22.9214 12.7978C23.1324 12.5868 23.2509 12.3006 23.2509 12.0022C23.2509 11.7038 23.1324 11.4176 22.9214 11.2066C22.7104 10.9956 22.4242 10.877 22.1258 10.877Z" fill="#EAECEF"/>
<path d="M11.9905 19.4995C11.6923 19.4999 11.4064 19.6186 11.1956 19.8295C10.9848 20.0405 10.8663 20.3264 10.866 20.6246V22.1248C10.866 22.423 10.9845 22.709 11.1953 22.9198C11.4062 23.1307 11.6922 23.2492 11.9904 23.2492C12.2886 23.2492 12.5746 23.1307 12.7854 22.9198C12.9963 22.709 13.1147 22.423 13.1147 22.1248V20.6246C13.1145 20.3264 12.996 20.0405 12.7853 19.8296C12.5745 19.6186 12.2887 19.4999 11.9905 19.4995Z" fill="#EAECEF"/>
<path d="M4.49744 12.0022C4.49718 11.704 4.37865 11.4181 4.16785 11.2071C3.95706 10.9962 3.6712 10.8775 3.37299 10.877H1.87446C1.57604 10.877 1.28984 10.9956 1.07883 11.2066C0.867814 11.4176 0.749268 11.7038 0.749268 12.0022C0.749268 12.3006 0.867814 12.5868 1.07883 12.7978C1.28984 13.0088 1.57604 13.1274 1.87446 13.1274H3.37299C3.6712 13.1269 3.95706 13.0082 4.16786 12.7973C4.37866 12.5863 4.49718 12.3004 4.49744 12.0022Z" fill="#EAECEF"/>
<path d="M11.9905 4.50055C12.2887 4.5001 12.5745 4.38138 12.7853 4.17045C12.9961 3.95952 13.1147 3.67358 13.1149 3.37537V1.87518C13.1149 1.57698 12.9965 1.291 12.7856 1.08014C12.5748 0.869283 12.2888 0.750824 11.9906 0.750824C11.6924 0.750824 11.4064 0.869283 11.1955 1.08014C10.9847 1.291 10.8662 1.57698 10.8662 1.87518V3.37537C10.8664 3.67356 10.9849 3.95949 11.1957 4.17043C11.4065 4.38137 11.6923 4.50009 11.9905 4.50055Z" fill="#EAECEF"/>
<path d="M18.8857 6.6972L19.9465 5.63642C20.0512 5.53209 20.1343 5.40812 20.1911 5.27162C20.2479 5.13512 20.2772 4.98876 20.2774 4.84093C20.2775 4.69309 20.2485 4.54667 20.192 4.41006C20.1355 4.27344 20.0526 4.14931 19.948 4.04478C19.8435 3.94024 19.7194 3.85734 19.5828 3.80083C19.4462 3.74432 19.2997 3.71531 19.1519 3.71545C19.0041 3.7156 18.8577 3.7449 18.7212 3.80167C18.5847 3.85845 18.4607 3.94159 18.3564 4.04633L17.2956 5.10713C17.1909 5.21147 17.1077 5.33543 17.0509 5.47193C16.9942 5.60843 16.9649 5.75479 16.9647 5.90263C16.9646 6.05047 16.9936 6.19689 17.0501 6.3335C17.1066 6.47011 17.1895 6.59424 17.294 6.69878C17.3986 6.80331 17.5227 6.88621 17.6593 6.94272C17.7959 6.99922 17.9424 7.02823 18.0902 7.02809C18.238 7.02794 18.3844 6.99864 18.5209 6.94186C18.6574 6.88508 18.7814 6.80194 18.8857 6.6972Z" fill="#EAECEF"/>
<path d="M18.8855 17.3073C18.7812 17.2026 18.6572 17.1195 18.5207 17.0627C18.3842 17.006 18.2379 16.9767 18.0901 16.9766C17.9423 16.9765 17.7959 17.0055 17.6593 17.062C17.5227 17.1185 17.3986 17.2014 17.294 17.3059C17.1895 17.4104 17.1066 17.5345 17.0501 17.6711C16.9936 17.8077 16.9646 17.9541 16.9647 18.1019C16.9649 18.2498 16.9941 18.3961 17.0509 18.5326C17.1076 18.6691 17.1907 18.7931 17.2954 18.8974L18.3562 19.9582C18.4606 20.0629 18.5845 20.146 18.721 20.2027C18.8575 20.2595 19.0039 20.2888 19.1517 20.2889C19.2995 20.289 19.4459 20.26 19.5825 20.2035C19.7191 20.147 19.8432 20.0641 19.9477 19.9596C20.0522 19.855 20.1351 19.7309 20.1916 19.5943C20.2481 19.4578 20.2772 19.3114 20.277 19.1635C20.2769 19.0157 20.2476 18.8694 20.1909 18.7329C20.1341 18.5964 20.051 18.4724 19.9463 18.3681L18.8855 17.3073Z" fill="#EAECEF"/>
<path d="M5.09531 17.3072L4.03453 18.368C3.92975 18.4723 3.84658 18.5963 3.78978 18.7328C3.73297 18.8693 3.70365 19.0157 3.70349 19.1635C3.70333 19.3114 3.73234 19.4578 3.78884 19.5944C3.84535 19.7311 3.92825 19.8552 4.0328 19.9598C4.13736 20.0643 4.2615 20.1472 4.39813 20.2037C4.53476 20.2602 4.6812 20.2892 4.82906 20.2891C4.97691 20.2889 5.12329 20.2596 5.2598 20.2028C5.3963 20.146 5.52027 20.0628 5.62459 19.958L6.68539 18.8973C6.7901 18.7929 6.87321 18.669 6.92995 18.5325C6.9867 18.396 7.01598 18.2496 7.01611 18.1018C7.01624 17.954 6.98722 17.8076 6.93071 17.671C6.8742 17.5344 6.79131 17.4103 6.68679 17.3058C6.58227 17.2013 6.45816 17.1184 6.32156 17.0619C6.18497 17.0054 6.03858 16.9763 5.89076 16.9765C5.74294 16.9766 5.5966 17.0059 5.4601 17.0626C5.32361 17.1194 5.19965 17.2025 5.09531 17.3072Z" fill="#EAECEF"/>
<path d="M5.0954 6.69709C5.19977 6.80164 5.32373 6.8846 5.46018 6.94122C5.59663 6.99784 5.74291 7.02702 5.89064 7.02708C6.03837 7.02714 6.18467 6.99809 6.32117 6.94158C6.45767 6.88508 6.5817 6.80222 6.68616 6.69776C6.79062 6.5933 6.87348 6.46927 6.92998 6.33277C6.98649 6.19627 7.01554 6.04997 7.01548 5.90224C7.01541 5.75451 6.98624 5.60823 6.92962 5.47178C6.87299 5.33533 6.79004 5.21137 6.68548 5.107L5.62468 4.0462C5.52038 3.94131 5.39641 3.85804 5.25987 3.80115C5.12333 3.74426 4.97691 3.71487 4.82899 3.71466C4.68107 3.71446 4.53457 3.74344 4.39787 3.79995C4.26117 3.85646 4.13697 3.93939 4.03238 4.04398C3.92779 4.14858 3.84486 4.27278 3.78835 4.40948C3.73184 4.54618 3.70286 4.69268 3.70307 4.8406C3.70327 4.98852 3.73266 5.13494 3.78956 5.27148C3.84645 5.40802 3.92972 5.53199 4.03461 5.63629L5.0954 6.69709Z" fill="#EAECEF"/>
</svg>
